<?xml version="1.0" encoding="UTF-8"?> <svg xmlns="http://www.w3.org/2000/svg" xmlns:xlink="http://www.w3.org/1999/xlink" id="Ebene_1" data-name="Ebene 1" width="217.86401" height="102.89301" viewBox="0 0 217.86401 102.89301"><defs><linearGradient id="Unbenannter_Verlauf_2" data-name="Unbenannter Verlauf 2" x1="2.25845" y1="1070.2526" x2="3.25845" y2="1070.2526" gradientTransform="matrix(98.80501, 0, 0, -65.40982, 441.19499, 70977.64702)" gradientUnits="userSpaceOnUse"><stop offset="0.001" stop-color="#910063"></stop><stop offset="0.036" stop-color="#990058"></stop><stop offset="0.173" stop-color="#b50035"></stop><stop offset="0.301" stop-color="#ca001b"></stop><stop offset="0.417" stop-color="#d6000c"></stop><stop offset="0.51" stop-color="#db0007"></stop><stop offset="1" stop-color="#e8720a"></stop></linearGradient></defs><g id="Gruppe_13333" data-name="Gruppe 13333"><g id="Gruppe_13332" data-name="Gruppe 13332"><g id="Gruppe_13331" data-name="Gruppe 13331"><g id="Gruppe_13330" data-name="Gruppe 13330"><path id="Pfad_412" data-name="Pfad 412" d="M849.12873,913.78077c-10.392,0-19.66,13.847-25.724,35.5-6.061-21.649-15.333-35.5-25.724-35.5-18.263,0-33.075,46.068-33.075,102.893h14.7c0-52.766,8.229-95.542,18.373-95.542s18.375,39.487,18.375,88.193h14.7c0-48.706,8.227-88.193,18.375-88.193s18.376,42.776,18.376,95.542h14.7C882.20073,959.85177,867.39473,913.78077,849.12873,913.78077Z" transform="translate(-664.34072 -913.78077)" style="fill: #ffbc0d"></path></g></g><path id="Pfad_413" data-name="Pfad 413" d="M664.34072,988.98577l5.493-49.074h12.821l10.25,30.836,10.327-30.836h12.818l5.493,49.074h-13.11l-2.856-29.957-8.722,26.367h-8.13l-8.784-26.661-2.93,30.251Zm60.059,14.5,2.563-7.617a11.5,11.5,0,0,0,4.469.952,4.9091,4.9091,0,0,0,3.039-1.026,10.775,10.775,0,0,0,2.746-4.174l1.392-3.223-14.283-36.327h12.891l7.032,23.291,6.812-23.291h12.085l-15.674,40.064q-2.636,6.738-6.153,9.96a12.13,12.13,0,0,1-8.5,3.224,21.49436,21.49436,0,0,1-4.688-.477,14.31686,14.31686,0,0,1-3.731-1.355Z" transform="translate(-664.34072 -913.78077)" style="fill: url(#Unbenannter_Verlauf_2)"></path></g></g></svg> 